<svg width="187" height="187" viewBox="0 0 187 187" fill="none" xmlns="http://www.w3.org/2000/svg">
<mask id="mask0_1_14" style="mask-type:alpha" maskUnits="userSpaceOnUse" x="0" y="0" width="187" height="187">
<path d="M176.381 0L140.406 7.35923L165.488 40.7588L183.521 36.9849L176.381 0ZM113.493 12.8315L95.4597 16.5111L120.633 49.8163L138.575 46.1367L113.493 12.8315ZM68.6384 21.889L50.6049 25.7573L75.7785 59.0626L93.7204 55.3829L68.6384 21.889ZM23.6921 31.3239L14.7211 33.1166C9.96452 34.0961 5.77947 36.9811 3.08488 41.1382C0.39029 45.2952 -0.593586 50.3845 0.349281 55.2886L3.91935 73.781L48.7741 64.6292L23.6921 31.3239ZM3.91935 73.781V168.13C3.91935 178.603 12.158 187 22.2274 187H168.692C178.853 187 187 178.603 187 168.13V73.781H3.91935Z" fill="#FF7F7F"/>
</mask>
<g mask="url(#mask0_1_14)">
<path d="M47.8006 12.8965H94.0253V194.523H47.8006V12.8965Z" fill="#FFFF7F"/>
<path d="M-2.10112 12.8965H49.3764V194.523H-2.10112V12.8965Z" fill="#FF7F7F"/>
<path d="M94.0253 12.8965H140.25V194.523H94.0253V12.8965Z" fill="#7FFF7F"/>
<rect x="139.725" y="-3.22414" width="47.2753" height="197.747" fill="#7FBFFF"/>
</g>
</svg>
