<svg width="1081" height="127" viewBox="0 0 1081 127" fill="none" xmlns="http://www.w3.org/2000/svg">
<mask id="mask0_4_18" style="mask-type:alpha" maskUnits="userSpaceOnUse" x="0" y="0" width="127" height="127">
<path d="M119.788 0L95.3559 4.99798L112.39 27.6811L124.638 25.1181L119.788 0ZM77.0782 8.71443L64.8309 11.2134L81.9274 33.8325L94.1125 31.3335L77.0782 8.71443ZM46.6154 14.8658L34.368 17.4929L51.4646 40.112L63.6497 37.613L46.6154 14.8658ZM16.0903 21.2735L9.99776 22.4909C6.76735 23.1562 3.9251 25.1155 2.09508 27.9387C0.265063 30.762 -0.403131 34.2184 0.237212 37.5489L2.66181 50.108L33.1247 43.8925L16.0903 21.2735ZM2.66181 50.108V114.185C2.66181 121.297 8.25703 127 15.0956 127H114.566C121.467 127 127 121.297 127 114.185V50.108H2.66181Z" fill="#FF7F7F"/>
</mask>
<g mask="url(#mask0_4_18)">
<path d="M32.4635 8.75862H63.8567V132.109H32.4635V8.75862Z" fill="#FFFF7F"/>
<path d="M-1.42696 8.75862H33.5337V132.109H-1.42696V8.75862Z" fill="#FF7F7F"/>
<path d="M63.8567 8.75862H95.25V132.109H63.8567V8.75862Z" fill="#7FFF7F"/>
<rect x="94.8933" y="-2.18965" width="32.1067" height="134.299" fill="#7FBFFF"/>
</g>
<path d="M180.528 102V34.224H191.28L217.968 75.792H212.496L239.088 34.224H249.936V102H234.864V59.664L237.552 60.336L220.176 87.408H210.192L192.912 60.336L195.504 59.664V102H180.528ZM284.054 103.056C279.254 103.056 274.902 102 270.998 99.888C267.158 97.712 264.118 94.768 261.878 91.056C259.638 87.344 258.518 83.184 258.518 78.576C258.518 73.968 259.638 69.84 261.878 66.192C264.118 62.544 267.158 59.664 270.998 57.552C274.838 55.376 279.19 54.288 284.054 54.288C288.918 54.288 293.27 55.344 297.11 57.456C300.95 59.568 303.99 62.48 306.23 66.192C308.47 69.84 309.59 73.968 309.59 78.576C309.59 83.184 308.47 87.344 306.23 91.056C303.99 94.768 300.95 97.712 297.11 99.888C293.27 102 288.918 103.056 284.054 103.056ZM284.054 89.712C286.166 89.712 288.022 89.264 289.622 88.368C291.222 87.408 292.438 86.096 293.27 84.432C294.166 82.704 294.614 80.752 294.614 78.576C294.614 76.4 294.166 74.512 293.27 72.912C292.374 71.248 291.126 69.968 289.526 69.072C287.99 68.112 286.166 67.632 284.054 67.632C282.006 67.632 280.182 68.112 278.582 69.072C276.982 69.968 275.734 71.248 274.838 72.912C273.942 74.576 273.494 76.496 273.494 78.672C273.494 80.784 273.942 82.704 274.838 84.432C275.734 86.096 276.982 87.408 278.582 88.368C280.182 89.264 282.006 89.712 284.054 89.712ZM330.278 102L310.502 55.344H326.342L339.782 94.224H332.87L346.31 55.344H361.862L342.086 101.904L330.278 102ZM367.153 102V55.344H381.841V102H367.153ZM374.545 48.912C372.241 48.912 370.321 48.144 368.785 46.608C367.313 45.008 366.577 43.088 366.577 40.848C366.577 38.544 367.313 36.624 368.785 35.088C370.321 33.552 372.241 32.784 374.545 32.784C376.849 32.784 378.737 33.552 380.209 35.088C381.681 36.624 382.417 38.544 382.417 40.848C382.417 43.088 381.681 45.008 380.209 46.608C378.737 48.144 376.849 48.912 374.545 48.912ZM415.224 103.056C410.168 103.056 405.656 102.032 401.688 99.984C397.784 97.872 394.712 94.96 392.472 91.248C390.232 87.536 389.112 83.344 389.112 78.672C389.112 74 390.2 69.84 392.376 66.192C394.616 62.48 397.624 59.568 401.4 57.456C405.176 55.344 409.432 54.288 414.168 54.288C418.776 54.288 422.84 55.28 426.36 57.264C429.88 59.248 432.632 62 434.616 65.52C436.664 69.04 437.688 73.072 437.688 77.616C437.688 78.448 437.624 79.344 437.496 80.304C437.432 81.2 437.272 82.256 437.016 83.472L396.792 83.568V73.488L430.776 73.392L424.44 77.616C424.376 74.928 423.96 72.72 423.192 70.992C422.424 69.2 421.272 67.856 419.736 66.96C418.264 66 416.44 65.52 414.264 65.52C411.96 65.52 409.944 66.064 408.216 67.152C406.552 68.176 405.24 69.648 404.28 71.568C403.384 73.488 402.936 75.824 402.936 78.576C402.936 81.328 403.416 83.696 404.376 85.68C405.4 87.6 406.808 89.104 408.6 90.192C410.456 91.216 412.632 91.728 415.128 91.728C417.432 91.728 419.512 91.344 421.368 90.576C423.224 89.744 424.856 88.528 426.264 86.928L434.328 94.992C432.024 97.68 429.24 99.696 425.976 101.04C422.712 102.384 419.128 103.056 415.224 103.056Z" fill="#7FBFFF"/>
<path d="M925.747 102V34.224H940.819V102H925.747ZM937.363 102V88.752H970.867V102H937.363ZM978.215 102V55.344H992.903V102H978.215ZM985.607 48.912C983.303 48.912 981.383 48.144 979.847 46.608C978.375 45.008 977.639 43.088 977.639 40.848C977.639 38.544 978.375 36.624 979.847 35.088C981.383 33.552 983.303 32.784 985.607 32.784C987.911 32.784 989.799 33.552 991.271 35.088C992.743 36.624 993.479 38.544 993.479 40.848C993.479 43.088 992.743 45.008 991.271 46.608C989.799 48.144 987.911 48.912 985.607 48.912ZM1020.24 103.152C1017.49 103.152 1014.77 102.8 1012.08 102.096C1009.45 101.392 1006.99 100.4 1004.69 99.12C1002.45 97.776 1000.53 96.24 998.927 94.512L1007.28 86.064C1008.81 87.728 1010.64 89.04 1012.75 90C1014.86 90.896 1017.17 91.344 1019.66 91.344C1021.39 91.344 1022.7 91.088 1023.6 90.576C1024.56 90.064 1025.04 89.36 1025.04 88.464C1025.04 87.312 1024.46 86.448 1023.31 85.872C1022.22 85.232 1020.81 84.688 1019.09 84.24C1017.36 83.728 1015.53 83.184 1013.61 82.608C1011.69 82.032 1009.87 81.232 1008.14 80.208C1006.41 79.184 1005.01 77.776 1003.92 75.984C1002.83 74.128 1002.29 71.792 1002.29 68.976C1002.29 65.968 1003.05 63.376 1004.59 61.2C1006.13 58.96 1008.3 57.2 1011.12 55.92C1013.93 54.64 1017.23 54 1021.01 54C1024.97 54 1028.62 54.704 1031.95 56.112C1035.34 57.456 1038.09 59.472 1040.21 62.16L1031.85 70.608C1030.38 68.88 1028.72 67.664 1026.86 66.96C1025.07 66.256 1023.31 65.904 1021.58 65.904C1019.92 65.904 1018.67 66.16 1017.84 66.672C1017.01 67.12 1016.59 67.792 1016.59 68.688C1016.59 69.648 1017.13 70.416 1018.22 70.992C1019.31 71.568 1020.72 72.08 1022.45 72.528C1024.17 72.976 1026 73.52 1027.92 74.16C1029.84 74.8 1031.66 75.664 1033.39 76.752C1035.12 77.84 1036.53 79.312 1037.61 81.168C1038.7 82.96 1039.25 85.328 1039.25 88.272C1039.25 92.816 1037.52 96.432 1034.06 99.12C1030.67 101.808 1026.06 103.152 1020.24 103.152ZM1053.84 102V36.048H1068.53V102H1053.84ZM1043.28 67.824V55.344H1079.09V67.824H1043.28Z" fill="#FF7F7F"/>
<path d="M464.403 102V34.224H474.963L479.475 47.76V102H464.403ZM511.155 102L471.219 50.832L474.963 34.224L514.899 85.392L511.155 102ZM511.155 102L507.123 88.464V34.224H522.195V102H511.155ZM533.934 102V55.344H548.622V102H533.934ZM541.326 48.912C539.022 48.912 537.102 48.144 535.566 46.608C534.094 45.008 533.358 43.088 533.358 40.848C533.358 38.544 534.094 36.624 535.566 35.088C537.102 33.552 539.022 32.784 541.326 32.784C543.63 32.784 545.518 33.552 546.99 35.088C548.462 36.624 549.198 38.544 549.198 40.848C549.198 43.088 548.462 45.008 546.99 46.608C545.518 48.144 543.63 48.912 541.326 48.912ZM578.741 122.928C573.621 122.928 569.109 122.032 565.205 120.24C561.365 118.512 558.325 116.048 556.085 112.848L565.109 103.824C566.773 105.808 568.629 107.312 570.677 108.336C572.789 109.36 575.317 109.872 578.261 109.872C581.909 109.872 584.757 108.976 586.805 107.184C588.917 105.392 589.973 102.864 589.973 99.6V87.696L592.469 77.52L590.261 67.344V55.344H604.661V99.216C604.661 104.016 603.541 108.176 601.301 111.696C599.061 115.216 595.989 117.968 592.085 119.952C588.181 121.936 583.733 122.928 578.741 122.928ZM578.069 100.56C573.781 100.56 569.973 99.536 566.645 97.488C563.317 95.44 560.693 92.656 558.773 89.136C556.853 85.616 555.893 81.712 555.893 77.424C555.893 73.072 556.853 69.168 558.773 65.712C560.693 62.192 563.317 59.44 566.645 57.456C569.973 55.408 573.781 54.384 578.069 54.384C581.269 54.384 584.117 54.992 586.613 56.208C589.173 57.36 591.221 59.024 592.757 61.2C594.357 63.312 595.253 65.776 595.445 68.592V86.352C595.253 89.104 594.357 91.568 592.757 93.744C591.221 95.856 589.173 97.52 586.613 98.736C584.053 99.952 581.205 100.56 578.069 100.56ZM580.853 87.504C582.901 87.504 584.661 87.056 586.133 86.16C587.669 85.264 588.821 84.08 589.589 82.608C590.421 81.072 590.837 79.344 590.837 77.424C590.837 75.504 590.421 73.776 589.589 72.24C588.821 70.704 587.669 69.488 586.133 68.592C584.661 67.696 582.901 67.248 580.853 67.248C578.869 67.248 577.109 67.696 575.573 68.592C574.037 69.488 572.853 70.704 572.021 72.24C571.189 73.776 570.773 75.504 570.773 77.424C570.773 79.216 571.189 80.912 572.021 82.512C572.853 84.048 574.005 85.264 575.477 86.16C577.013 87.056 578.805 87.504 580.853 87.504ZM645.844 102V75.408C645.844 72.976 645.076 71.024 643.54 69.552C642.068 68.016 640.18 67.248 637.876 67.248C636.276 67.248 634.868 67.6 633.652 68.304C632.436 68.944 631.476 69.904 630.772 71.184C630.068 72.4 629.716 73.808 629.716 75.408L624.052 72.624C624.052 68.976 624.82 65.776 626.356 63.024C627.892 60.272 630.036 58.16 632.788 56.688C635.54 55.152 638.708 54.384 642.292 54.384C645.94 54.384 649.14 55.152 651.892 56.688C654.644 58.16 656.756 60.24 658.228 62.928C659.764 65.552 660.532 68.624 660.532 72.144V102H645.844ZM615.028 102V32.304H629.716V102H615.028ZM676.027 102V36.048H690.715V102H676.027ZM665.467 67.824V55.344H701.275V67.824H665.467Z" fill="#7FFF7F"/>
<path d="M742.48 102V35.184H757.552V102H742.48ZM721.264 47.376V34.224H778.768V47.376H721.264ZM785.84 102V55.344H800.528V102H785.84ZM793.232 48.912C790.928 48.912 789.008 48.144 787.472 46.608C786 45.008 785.264 43.088 785.264 40.848C785.264 38.544 786 36.624 787.472 35.088C789.008 33.552 790.928 32.784 793.232 32.784C795.536 32.784 797.424 33.552 798.896 35.088C800.368 36.624 801.104 38.544 801.104 40.848C801.104 43.088 800.368 45.008 798.896 46.608C797.424 48.144 795.536 48.912 793.232 48.912ZM833.911 103.056C828.856 103.056 824.344 102.032 820.376 99.984C816.472 97.872 813.4 94.96 811.16 91.248C808.92 87.536 807.8 83.344 807.8 78.672C807.8 74 808.888 69.84 811.064 66.192C813.304 62.48 816.312 59.568 820.088 57.456C823.864 55.344 828.12 54.288 832.856 54.288C837.464 54.288 841.528 55.28 845.048 57.264C848.568 59.248 851.32 62 853.304 65.52C855.352 69.04 856.375 73.072 856.375 77.616C856.375 78.448 856.312 79.344 856.184 80.304C856.12 81.2 855.96 82.256 855.704 83.472L815.48 83.568V73.488L849.464 73.392L843.128 77.616C843.064 74.928 842.648 72.72 841.88 70.992C841.112 69.2 839.96 67.856 838.424 66.96C836.952 66 835.128 65.52 832.952 65.52C830.648 65.52 828.632 66.064 826.904 67.152C825.24 68.176 823.928 69.648 822.968 71.568C822.072 73.488 821.624 75.824 821.624 78.576C821.624 81.328 822.104 83.696 823.064 85.68C824.088 87.6 825.496 89.104 827.288 90.192C829.144 91.216 831.32 91.728 833.816 91.728C836.12 91.728 838.2 91.344 840.056 90.576C841.912 89.744 843.544 88.528 844.952 86.928L853.016 94.992C850.712 97.68 847.928 99.696 844.664 101.04C841.4 102.384 837.816 103.056 833.911 103.056ZM863.465 102V55.344H878.153V102H863.465ZM878.153 76.368L872.009 71.568C873.225 66.128 875.273 61.904 878.153 58.896C881.033 55.888 885.033 54.384 890.153 54.384C892.393 54.384 894.345 54.736 896.009 55.44C897.737 56.08 899.241 57.104 900.521 58.512L891.785 69.552C891.145 68.848 890.345 68.304 889.385 67.92C888.425 67.536 887.337 67.344 886.121 67.344C883.689 67.344 881.737 68.112 880.265 69.648C878.857 71.12 878.153 73.36 878.153 76.368Z" fill="#FFFF7F"/>
</svg>
