<?xml version="1.0" standalone="no"?>
<!DOCTYPE svg PUBLIC "-//W3C//DTD SVG 20010904//EN"
 "http://www.w3.org/TR/2001/REC-SVG-20010904/DTD/svg10.dtd">
<svg version="1.0" xmlns="http://www.w3.org/2000/svg"
 width="700.000000pt" height="700.000000pt" viewBox="0 0 700.000000 700.000000"
 preserveAspectRatio="xMidYMid meet">
<metadata>
Created by potrace 1.14, written by Peter Selinger 2001-2017
</metadata>
<g transform="translate(0.000000,700.000000) scale(0.100000,-0.100000)"
fill="#000000" stroke="none">
<path d="M6565 6994 c-9 -4 -616 -129 -675 -140 -14 -3 -65 -13 -115 -24 -49
-10 -101 -21 -115 -24 -14 -2 -50 -10 -80 -16 -30 -6 -68 -14 -85 -17 -16 -2
-61 -11 -100 -20 -38 -8 -83 -17 -100 -20 -16 -3 -32 -6 -34 -8 -3 -3 44 -71
59 -85 3 -3 57 -75 120 -160 63 -85 120 -162 127 -170 7 -8 151 -200 320 -426
l308 -411 85 19 c47 10 95 20 106 22 122 23 471 99 476 104 4 4 3 25 -2 47 -5
22 -11 54 -14 70 -13 70 -48 254 -86 450 -23 116 -52 269 -66 340 -14 72 -27
141 -30 155 -2 14 -13 70 -24 125 -11 55 -23 118 -26 140 -7 49 -18 60 -49 49z"/>
<path d="M4075 6485 c-88 -19 -176 -36 -195 -40 -19 -3 -42 -7 -50 -10 -17 -5
-33 -8 -157 -32 -51 -10 -93 -21 -93 -24 0 -4 87 -121 193 -261 105 -139 199
-263 207 -275 36 -50 134 -178 140 -183 3 -3 17 -21 30 -40 13 -19 27 -37 30
-40 3 -3 30 -39 60 -80 30 -41 57 -77 60 -80 3 -3 25 -32 50 -65 25 -33 50
-66 57 -75 7 -8 33 -43 58 -77 26 -35 54 -63 62 -63 8 0 81 14 162 31 80 17
157 32 171 35 14 2 36 7 50 10 14 3 35 8 46 10 92 17 218 45 222 49 3 3 -57
86 -132 186 -76 100 -286 379 -468 620 -181 242 -332 439 -336 438 -4 -1 -79
-16 -167 -34z"/>
<path d="M2519 6169 c-20 -4 -47 -10 -60 -13 -13 -2 -89 -19 -169 -36 -80 -17
-154 -33 -165 -36 -88 -17 -221 -47 -224 -50 -2 -2 23 -38 56 -81 32 -43 164
-217 293 -388 129 -170 238 -314 242 -320 25 -30 117 -154 142 -189 16 -23 31
-43 35 -46 5 -4 138 -179 162 -213 3 -4 118 15 255 43 137 28 256 53 264 54 8
2 33 7 55 11 22 5 43 9 48 10 4 2 16 3 27 4 11 0 20 5 20 9 0 6 -495 676 -537
727 -4 6 -95 126 -201 268 -105 141 -195 257 -200 256 -4 -1 -23 -5 -43 -10z"/>
<path d="M690 5789 c-217 -45 -278 -66 -374 -129 -207 -136 -329 -380 -312
-628 3 -48 21 -167 41 -265 19 -98 37 -193 40 -210 3 -18 18 -88 32 -157 l26
-125 2 -1825 c2 -2055 -4 -1894 80 -2065 91 -183 244 -309 446 -365 73 -20 81
-20 2919 -17 1565 1 2852 5 2860 8 8 3 35 11 60 18 61 17 153 65 219 115 116
88 212 239 250 393 19 75 19 143 20 1889 l1 1812 -3406 0 c-1873 0 -3408 3
-3411 6 -4 3 3 7 15 7 12 1 25 2 30 3 10 3 72 15 102 21 14 3 59 12 100 20 41
8 85 17 96 19 12 3 64 14 115 25 52 11 108 22 124 25 17 3 85 17 150 31 66 14
131 27 145 30 20 4 186 37 345 70 11 3 108 22 215 44 129 26 194 43 192 51 -1
6 -111 156 -244 333 -133 177 -262 349 -287 382 -25 33 -48 62 -51 65 -3 3
-16 21 -30 40 -13 19 -28 40 -33 45 -4 6 -69 91 -143 190 -75 99 -139 181
-142 181 -4 1 -90 -16 -192 -37z"/>
</g>
</svg>
